<mxfile host="app.diagrams.net" modified="2024-02-12T01:48:43.151Z" agent="Mozilla/5.0 (Windows NT 10.0; Win64; x64) AppleWebKit/537.36 (KHTML, like Gecko) Chrome/121.0.0.0 Safari/537.36" etag="EcixBvpdIvxiHCsgigoO" version="23.0.2" type="github">
  <diagram name="Page-1" id="iXOcRDY0NKMMEdiEWi6a">
    <mxGraphModel dx="1313" dy="653" grid="1" gridSize="10" guides="1" tooltips="1" connect="1" arrows="1" fold="1" page="1" pageScale="1" pageWidth="850" pageHeight="1100" math="0" shadow="0">
      <root>
        <mxCell id="0" />
        <mxCell id="1" parent="0" />
        <mxCell id="JZjwSMfY0s4pdiB9s8ZH-5" value="" style="edgeStyle=orthogonalEdgeStyle;rounded=0;orthogonalLoop=1;jettySize=auto;html=1;" edge="1" parent="1" source="JZjwSMfY0s4pdiB9s8ZH-1" target="JZjwSMfY0s4pdiB9s8ZH-2">
          <mxGeometry relative="1" as="geometry" />
        </mxCell>
        <mxCell id="JZjwSMfY0s4pdiB9s8ZH-1" value="START" style="ellipse;whiteSpace=wrap;html=1;" vertex="1" parent="1">
          <mxGeometry x="140" y="20" width="120" height="80" as="geometry" />
        </mxCell>
        <mxCell id="JZjwSMfY0s4pdiB9s8ZH-7" value="" style="edgeStyle=orthogonalEdgeStyle;rounded=0;orthogonalLoop=1;jettySize=auto;html=1;" edge="1" parent="1" source="JZjwSMfY0s4pdiB9s8ZH-2" target="JZjwSMfY0s4pdiB9s8ZH-6">
          <mxGeometry relative="1" as="geometry" />
        </mxCell>
        <mxCell id="JZjwSMfY0s4pdiB9s8ZH-2" value="n1 = 0,&amp;nbsp;&lt;br&gt;n2= 0 , total = 0,&lt;br&gt;op = 0" style="shape=hexagon;perimeter=hexagonPerimeter2;whiteSpace=wrap;html=1;fixedSize=1;" vertex="1" parent="1">
          <mxGeometry x="130" y="140" width="140" height="100" as="geometry" />
        </mxCell>
        <mxCell id="JZjwSMfY0s4pdiB9s8ZH-9" value="" style="edgeStyle=orthogonalEdgeStyle;rounded=0;orthogonalLoop=1;jettySize=auto;html=1;" edge="1" parent="1" source="JZjwSMfY0s4pdiB9s8ZH-6" target="JZjwSMfY0s4pdiB9s8ZH-8">
          <mxGeometry relative="1" as="geometry" />
        </mxCell>
        <mxCell id="JZjwSMfY0s4pdiB9s8ZH-6" value="Input&amp;nbsp; n1, n2, op" style="shape=parallelogram;perimeter=parallelogramPerimeter;whiteSpace=wrap;html=1;fixedSize=1;" vertex="1" parent="1">
          <mxGeometry x="130" y="280" width="140" height="70" as="geometry" />
        </mxCell>
        <mxCell id="JZjwSMfY0s4pdiB9s8ZH-11" value="" style="edgeStyle=orthogonalEdgeStyle;rounded=0;orthogonalLoop=1;jettySize=auto;html=1;" edge="1" parent="1" source="JZjwSMfY0s4pdiB9s8ZH-8" target="JZjwSMfY0s4pdiB9s8ZH-10">
          <mxGeometry relative="1" as="geometry" />
        </mxCell>
        <mxCell id="JZjwSMfY0s4pdiB9s8ZH-15" value="" style="edgeStyle=orthogonalEdgeStyle;rounded=0;orthogonalLoop=1;jettySize=auto;html=1;" edge="1" parent="1" source="JZjwSMfY0s4pdiB9s8ZH-8" target="JZjwSMfY0s4pdiB9s8ZH-14">
          <mxGeometry relative="1" as="geometry" />
        </mxCell>
        <mxCell id="JZjwSMfY0s4pdiB9s8ZH-8" value="IF op = &#39;+&#39;" style="rhombus;whiteSpace=wrap;html=1;" vertex="1" parent="1">
          <mxGeometry x="160" y="425" width="80" height="80" as="geometry" />
        </mxCell>
        <mxCell id="JZjwSMfY0s4pdiB9s8ZH-13" value="" style="edgeStyle=orthogonalEdgeStyle;rounded=0;orthogonalLoop=1;jettySize=auto;html=1;" edge="1" parent="1" source="JZjwSMfY0s4pdiB9s8ZH-10" target="JZjwSMfY0s4pdiB9s8ZH-12">
          <mxGeometry relative="1" as="geometry" />
        </mxCell>
        <mxCell id="JZjwSMfY0s4pdiB9s8ZH-10" value="total = n1 + n2" style="whiteSpace=wrap;html=1;" vertex="1" parent="1">
          <mxGeometry x="300" y="435" width="120" height="60" as="geometry" />
        </mxCell>
        <mxCell id="JZjwSMfY0s4pdiB9s8ZH-33" style="edgeStyle=orthogonalEdgeStyle;rounded=0;orthogonalLoop=1;jettySize=auto;html=1;" edge="1" parent="1" source="JZjwSMfY0s4pdiB9s8ZH-12">
          <mxGeometry relative="1" as="geometry">
            <mxPoint x="440" y="1070" as="targetPoint" />
            <Array as="points">
              <mxPoint x="791" y="465" />
            </Array>
          </mxGeometry>
        </mxCell>
        <mxCell id="JZjwSMfY0s4pdiB9s8ZH-12" value="Output total" style="shape=parallelogram;perimeter=parallelogramPerimeter;whiteSpace=wrap;html=1;fixedSize=1;" vertex="1" parent="1">
          <mxGeometry x="500" y="435" width="120" height="60" as="geometry" />
        </mxCell>
        <mxCell id="JZjwSMfY0s4pdiB9s8ZH-17" value="" style="edgeStyle=orthogonalEdgeStyle;rounded=0;orthogonalLoop=1;jettySize=auto;html=1;" edge="1" parent="1" source="JZjwSMfY0s4pdiB9s8ZH-14" target="JZjwSMfY0s4pdiB9s8ZH-16">
          <mxGeometry relative="1" as="geometry" />
        </mxCell>
        <mxCell id="JZjwSMfY0s4pdiB9s8ZH-21" value="" style="edgeStyle=orthogonalEdgeStyle;rounded=0;orthogonalLoop=1;jettySize=auto;html=1;" edge="1" parent="1" source="JZjwSMfY0s4pdiB9s8ZH-14" target="JZjwSMfY0s4pdiB9s8ZH-20">
          <mxGeometry relative="1" as="geometry" />
        </mxCell>
        <mxCell id="JZjwSMfY0s4pdiB9s8ZH-14" value="IF op = &#39;-&#39;" style="rhombus;whiteSpace=wrap;html=1;" vertex="1" parent="1">
          <mxGeometry x="160" y="585" width="80" height="80" as="geometry" />
        </mxCell>
        <mxCell id="JZjwSMfY0s4pdiB9s8ZH-19" value="" style="edgeStyle=orthogonalEdgeStyle;rounded=0;orthogonalLoop=1;jettySize=auto;html=1;" edge="1" parent="1" source="JZjwSMfY0s4pdiB9s8ZH-16" target="JZjwSMfY0s4pdiB9s8ZH-18">
          <mxGeometry relative="1" as="geometry" />
        </mxCell>
        <mxCell id="JZjwSMfY0s4pdiB9s8ZH-16" value="total = n1 - n2" style="whiteSpace=wrap;html=1;" vertex="1" parent="1">
          <mxGeometry x="300" y="595" width="120" height="60" as="geometry" />
        </mxCell>
        <mxCell id="JZjwSMfY0s4pdiB9s8ZH-34" style="edgeStyle=orthogonalEdgeStyle;rounded=0;orthogonalLoop=1;jettySize=auto;html=1;" edge="1" parent="1" source="JZjwSMfY0s4pdiB9s8ZH-18">
          <mxGeometry relative="1" as="geometry">
            <mxPoint x="450" y="1040" as="targetPoint" />
            <Array as="points">
              <mxPoint x="761" y="625" />
            </Array>
          </mxGeometry>
        </mxCell>
        <mxCell id="JZjwSMfY0s4pdiB9s8ZH-18" value="Output total" style="shape=parallelogram;perimeter=parallelogramPerimeter;whiteSpace=wrap;html=1;fixedSize=1;" vertex="1" parent="1">
          <mxGeometry x="500" y="595" width="120" height="60" as="geometry" />
        </mxCell>
        <mxCell id="JZjwSMfY0s4pdiB9s8ZH-23" value="" style="edgeStyle=orthogonalEdgeStyle;rounded=0;orthogonalLoop=1;jettySize=auto;html=1;" edge="1" parent="1" source="JZjwSMfY0s4pdiB9s8ZH-20" target="JZjwSMfY0s4pdiB9s8ZH-22">
          <mxGeometry relative="1" as="geometry" />
        </mxCell>
        <mxCell id="JZjwSMfY0s4pdiB9s8ZH-27" value="" style="edgeStyle=orthogonalEdgeStyle;rounded=0;orthogonalLoop=1;jettySize=auto;html=1;" edge="1" parent="1" source="JZjwSMfY0s4pdiB9s8ZH-20" target="JZjwSMfY0s4pdiB9s8ZH-26">
          <mxGeometry relative="1" as="geometry" />
        </mxCell>
        <mxCell id="JZjwSMfY0s4pdiB9s8ZH-20" value="IF op = &#39;*&#39;" style="rhombus;whiteSpace=wrap;html=1;" vertex="1" parent="1">
          <mxGeometry x="160" y="745" width="80" height="80" as="geometry" />
        </mxCell>
        <mxCell id="JZjwSMfY0s4pdiB9s8ZH-25" value="" style="edgeStyle=orthogonalEdgeStyle;rounded=0;orthogonalLoop=1;jettySize=auto;html=1;" edge="1" parent="1" source="JZjwSMfY0s4pdiB9s8ZH-22" target="JZjwSMfY0s4pdiB9s8ZH-24">
          <mxGeometry relative="1" as="geometry" />
        </mxCell>
        <mxCell id="JZjwSMfY0s4pdiB9s8ZH-22" value="total = n1 * n2" style="whiteSpace=wrap;html=1;" vertex="1" parent="1">
          <mxGeometry x="300" y="755" width="120" height="60" as="geometry" />
        </mxCell>
        <mxCell id="JZjwSMfY0s4pdiB9s8ZH-35" style="edgeStyle=orthogonalEdgeStyle;rounded=0;orthogonalLoop=1;jettySize=auto;html=1;" edge="1" parent="1" source="JZjwSMfY0s4pdiB9s8ZH-24">
          <mxGeometry relative="1" as="geometry">
            <mxPoint x="450" y="1030" as="targetPoint" />
            <Array as="points">
              <mxPoint x="731" y="785" />
            </Array>
          </mxGeometry>
        </mxCell>
        <mxCell id="JZjwSMfY0s4pdiB9s8ZH-24" value="Output total" style="shape=parallelogram;perimeter=parallelogramPerimeter;whiteSpace=wrap;html=1;fixedSize=1;" vertex="1" parent="1">
          <mxGeometry x="500" y="755" width="120" height="60" as="geometry" />
        </mxCell>
        <mxCell id="JZjwSMfY0s4pdiB9s8ZH-29" value="" style="edgeStyle=orthogonalEdgeStyle;rounded=0;orthogonalLoop=1;jettySize=auto;html=1;" edge="1" parent="1" source="JZjwSMfY0s4pdiB9s8ZH-26" target="JZjwSMfY0s4pdiB9s8ZH-28">
          <mxGeometry relative="1" as="geometry" />
        </mxCell>
        <mxCell id="JZjwSMfY0s4pdiB9s8ZH-39" value="" style="edgeStyle=orthogonalEdgeStyle;rounded=0;orthogonalLoop=1;jettySize=auto;html=1;" edge="1" parent="1" source="JZjwSMfY0s4pdiB9s8ZH-26" target="JZjwSMfY0s4pdiB9s8ZH-38">
          <mxGeometry relative="1" as="geometry" />
        </mxCell>
        <mxCell id="JZjwSMfY0s4pdiB9s8ZH-26" value="IF op = &#39;\&#39;" style="rhombus;whiteSpace=wrap;html=1;" vertex="1" parent="1">
          <mxGeometry x="160" y="880" width="80" height="80" as="geometry" />
        </mxCell>
        <mxCell id="JZjwSMfY0s4pdiB9s8ZH-31" value="" style="edgeStyle=orthogonalEdgeStyle;rounded=0;orthogonalLoop=1;jettySize=auto;html=1;" edge="1" parent="1" source="JZjwSMfY0s4pdiB9s8ZH-28" target="JZjwSMfY0s4pdiB9s8ZH-30">
          <mxGeometry relative="1" as="geometry" />
        </mxCell>
        <mxCell id="JZjwSMfY0s4pdiB9s8ZH-28" value="total = n1 \&amp;nbsp; n2" style="whiteSpace=wrap;html=1;" vertex="1" parent="1">
          <mxGeometry x="305" y="890" width="120" height="60" as="geometry" />
        </mxCell>
        <mxCell id="JZjwSMfY0s4pdiB9s8ZH-36" style="edgeStyle=orthogonalEdgeStyle;rounded=0;orthogonalLoop=1;jettySize=auto;html=1;" edge="1" parent="1" source="JZjwSMfY0s4pdiB9s8ZH-30">
          <mxGeometry relative="1" as="geometry">
            <mxPoint x="455" y="1015" as="targetPoint" />
            <Array as="points">
              <mxPoint x="681" y="945" />
            </Array>
          </mxGeometry>
        </mxCell>
        <mxCell id="JZjwSMfY0s4pdiB9s8ZH-30" value="Output total" style="shape=parallelogram;perimeter=parallelogramPerimeter;whiteSpace=wrap;html=1;fixedSize=1;" vertex="1" parent="1">
          <mxGeometry x="490" y="890" width="120" height="60" as="geometry" />
        </mxCell>
        <mxCell id="JZjwSMfY0s4pdiB9s8ZH-32" value="END" style="ellipse;whiteSpace=wrap;html=1;" vertex="1" parent="1">
          <mxGeometry x="305" y="1000" width="120" height="80" as="geometry" />
        </mxCell>
        <mxCell id="JZjwSMfY0s4pdiB9s8ZH-40" value="" style="edgeStyle=orthogonalEdgeStyle;rounded=0;orthogonalLoop=1;jettySize=auto;html=1;" edge="1" parent="1" source="JZjwSMfY0s4pdiB9s8ZH-38" target="JZjwSMfY0s4pdiB9s8ZH-32">
          <mxGeometry relative="1" as="geometry" />
        </mxCell>
        <mxCell id="JZjwSMfY0s4pdiB9s8ZH-38" value="INVALID" style="shape=parallelogram;perimeter=parallelogramPerimeter;whiteSpace=wrap;html=1;fixedSize=1;" vertex="1" parent="1">
          <mxGeometry x="140" y="1010" width="120" height="60" as="geometry" />
        </mxCell>
        <mxCell id="JZjwSMfY0s4pdiB9s8ZH-41" value="YES" style="text;html=1;strokeColor=none;fillColor=none;align=center;verticalAlign=middle;whiteSpace=wrap;rounded=0;" vertex="1" parent="1">
          <mxGeometry x="230" y="420" width="60" height="30" as="geometry" />
        </mxCell>
        <mxCell id="JZjwSMfY0s4pdiB9s8ZH-42" value="YES" style="text;html=1;strokeColor=none;fillColor=none;align=center;verticalAlign=middle;whiteSpace=wrap;rounded=0;" vertex="1" parent="1">
          <mxGeometry x="230" y="585" width="60" height="30" as="geometry" />
        </mxCell>
        <mxCell id="JZjwSMfY0s4pdiB9s8ZH-43" value="YES" style="text;html=1;strokeColor=none;fillColor=none;align=center;verticalAlign=middle;whiteSpace=wrap;rounded=0;" vertex="1" parent="1">
          <mxGeometry x="230" y="740" width="60" height="30" as="geometry" />
        </mxCell>
        <mxCell id="JZjwSMfY0s4pdiB9s8ZH-44" value="YES" style="text;html=1;strokeColor=none;fillColor=none;align=center;verticalAlign=middle;whiteSpace=wrap;rounded=0;" vertex="1" parent="1">
          <mxGeometry x="240" y="880" width="60" height="30" as="geometry" />
        </mxCell>
        <mxCell id="JZjwSMfY0s4pdiB9s8ZH-45" value="No" style="text;html=1;strokeColor=none;fillColor=none;align=center;verticalAlign=middle;whiteSpace=wrap;rounded=0;" vertex="1" parent="1">
          <mxGeometry x="120" y="840" width="60" height="30" as="geometry" />
        </mxCell>
        <mxCell id="JZjwSMfY0s4pdiB9s8ZH-46" value="No" style="text;html=1;strokeColor=none;fillColor=none;align=center;verticalAlign=middle;whiteSpace=wrap;rounded=0;" vertex="1" parent="1">
          <mxGeometry x="120" y="690" width="60" height="30" as="geometry" />
        </mxCell>
        <mxCell id="JZjwSMfY0s4pdiB9s8ZH-47" value="No" style="text;html=1;strokeColor=none;fillColor=none;align=center;verticalAlign=middle;whiteSpace=wrap;rounded=0;" vertex="1" parent="1">
          <mxGeometry x="120" y="530" width="60" height="30" as="geometry" />
        </mxCell>
      </root>
    </mxGraphModel>
  </diagram>
</mxfile>
